<?xml version="1.0" encoding="UTF-8"?>
<svg width="155" height="auto" id="Layer_1" xmlns="http://www.w3.org/2000/svg" version="1.1" xmlns:xlink="http://www.w3.org/1999/xlink" viewBox="0 0 742.6 272">
  <!-- Generator: Adobe Illustrator 29.2.0, SVG Export Plug-In . SVG Version: 2.1.0 Build 108)  -->
  <defs>
    <style>
      .st0 {
        fill: #9a1c20;
      }

      .st1 {
        fill: #ff1616;
      }

      .st2 {
        fill: #b82126;
      }

      .st3 {
        fill: #e9edf5;
      }

      .st4 {
        fill: #555a66;
      }

      .st5 {
        fill: #f7faff;
      }

      .st6 {
        fill: #e0282e;
      }

      .st7 {
        fill: #333940;
      }

      .st8 {
        display: none;
        fill: #f6fafd;
      }

      .st9 {
        fill: #bec3d2;
      }
    </style>
  </defs>
  <path class="st4" d="M65.8,127.3c-26.3,39.4-29.1,79.5-15.5,94.4,13.9,15.2,55,10.8,107.7-24.3,0,0-83.3,30.7-96.5,13.2-12.8-17.2,3.6-80.4,4.3-83.3ZM203.8,147.1c26.3-39.4,29.1-79.6,15.5-94.4-13.9-15.2-55.1-10.8-107.7,24.3,0,0,83.3-30.7,96.5-13.2,12.8,17.2-3.6,80.4-4.3,83.3ZM254.8,17.6c25.1,27.2-.6,110-66.2,175.4-64.5,64.3-145.8,85.6-170.2,62.6-.4-.4-.8-.8-1.2-1.2-25-27.3-3.8-105.6,61.8-171C143.5,19,227-8.7,253.6,16.3c.4.4.9.8,1.3,1.3Z"/>
  <path class="st3" d="M246.8,25.8h0c-.2-.3-.5-.6-.7-.8-1.7-1.3-3.5-2.5-5.4-3.5s-3.9-1.8-5.9-2.5c-2.1-.6-4.2-1.1-6.3-1.3-2.1-.2-4.3-.3-6.4-.1-33.7,0-89.4,25.2-136.5,72.1C25.6,149.3,4.2,222.9,25.8,246.5c.2.3.5.5.7.7,19.9,18.7,94.2,1.5,156.3-60.4,61.4-61.2,85.2-138.1,64-161.1Z"/>
  <path class="st5" d="M176,181.3c-46.8,46.6-109.2,58.4-125.8,40.4-18.1-19.7-6.3-78.7,40.5-125.3,46.8-46.6,110.7-63.1,128.9-43.5,18.2,19.6,3.1,81.8-43.6,128.4Z"/>
  <path class="st2" d="M61.4,210.6c13.2,17.5,96.5-13.2,96.5-13.2-52.6,35.1-93.8,39.5-107.7,24.3-13.6-14.9-10.7-55,15.5-94.4-.7,2.9-17.2,66.1-4.3,83.3Z"/>
  <path class="st6" d="M219.3,52.6c13.6,14.9,10.7,55-15.5,94.4.7-2.9,17.2-66.1,4.3-83.3-13.2-17.5-96.5,13.2-96.5,13.2,52.6-35.1,93.8-39.5,107.7-24.3Z"/>
  <path class="st6" d="M65.2,65.2C130.5,0,221.2-15.6,254.5,15.3l-.9,1c-26.6-25-110,2.7-174.6,67C13.3,148.7-7.8,227.1,17.2,254.4c.4.4.8.8,1.2,1.2l-1,1c-.4-.3-.7-.7-1.1-1C-16,223.3-.8,131.3,65.2,65.2Z"/>
  <path class="st6" d="M255.6,16.4c32.3,32.3,17.2,124.3-48.9,190.4-65.4,65.3-156.1,80.9-189.3,49.9l1-1c24.4,23,105.8,1.7,170.2-62.6C254.2,127.6,279.9,44.7,254.8,17.6c-.4-.4-.8-.9-1.3-1.3l.9-1c.4.3.8.7,1.1,1.1Z"/>
  <path class="st7" d="M26.5,247.2c-.3-.2-.5-.5-.7-.7-17-18.6-7.3-68.4,27.1-118,.4-6.2,1.1-12.4,2.3-18.5C8.6,168.7-4.5,230.7,17.2,254.4c.4.4.8.8,1.2,1.2,24.4,23,105.8,1.7,170.2-62.6,4.6-4.6,9-9.3,13.2-14-6.8,3.6-13.7,6.8-20.9,9.7-61.8,60.4-134.8,77.2-154.5,58.6Z"/>
  <path class="st9" d="M159.6,195.9c-.8.6-1.5,1.2-2.3,1.8l.6-.2c-.8.5-1.6,1-2.4,1.5-27.9,18.2-52.5,27.8-71.3,30.3-14.2,1.9-25-.2-31.7-5.5-.8-.6-1.6-1.3-2.2-2h0c-1-1.2-1.9-2.4-2.7-3.7-.4-.6-.7-1.2-1-1.8-.4-.7-.7-1.5-1-2.2-.4-.9-.7-1.8-1.1-2.8-.1-.4-.2-.8-.3-1.3-1.2-4.3-1.8-8.7-1.8-13.2,0-.5,0-1,0-1.6,0-1.3,0-2.6.1-3.9,0-1.2.2-2.4.3-3.7,0-.9.2-1.8.3-2.6,1.7-12.4,5.2-24.3,10.5-35.7-.8-6.9-1-13.8-.6-20.7-34.3,49.5-44.1,99.3-27.1,117.9.2.3.5.5.7.7,19.7,18.5,92.7,1.8,154.5-58.6-7,2.8-14.2,5.2-21.4,7.3Z"/>
  <path class="st9" d="M70.1,186.4c-.4-.4-.7-.7-1.1-1-4.9-5.1-8.6-11-11.1-17.7-2.1,17.1-2.5,34.9,3.5,42.8,12.5,16.7,88.5-10.3,95.9-12.9.8-.6,1.5-1.2,2.3-1.8-37.8,10.4-71.8,7.1-89.5-9.4Z"/>
  <path class="st0" d="M61.4,210.6c-5.9-7.9-5.6-25.7-3.5-42.8-2.2-5.9-3.7-12-4.4-18.2-5.3,11.3-8.8,23.1-10.6,35.4-.1.9-.2,1.8-.3,2.6-.1,1.2-.2,2.5-.3,3.7,0,1.3-.1,2.7-.1,3.9s0,1,0,1.6c0,4.5.7,8.9,1.8,13.2.1.4.2.8.4,1.3.3,1,.7,1.9,1.1,2.8.3.8.7,1.5,1,2.2.3.6.6,1.3,1,1.8.8,1.3,1.7,2.5,2.7,3.6h0c.7.8,1.4,1.4,2.2,2,6.6,5.1,17.9,7,31.7,5.5,18.8-2.5,43.4-12.1,71.3-30.3.6-.4,1.2-.9,1.8-1.3-7.4,2.7-83.4,29.6-95.9,13Z"/>
  <path class="st0" d="M17.2,254.4c-21.6-23.6-8.6-85.6,37.9-144.3,3.5-18.1,9.3-35.4,17.5-51.9-2.5,2.3-5,4.6-7.4,7C-.8,131.3-16,223.3,16.4,255.6c.4.4.7.7,1.1,1l1-1c-.4-.4-.8-.8-1.2-1.2Z"/>
  <path class="st0" d="M188.6,193c-64.5,64.3-145.8,85.6-170.2,62.6l-1,1c33.2,31,124,15.4,189.3-49.9,9.2-9.2,17.6-19.1,25.2-29.7s14.3-21.7,20-33.4c-15.2,14-31.9,25.8-50.1,35.4-4.2,4.7-8.6,9.4-13.2,14Z"/>
  <path class="st8" d="M240.6,28.7c.5.5.9,1,1.3,1.5s.7,1.1,1,1.6.6,1.1.8,1.7.3,1.1.4,1.7c0,.6.1,1.1.1,1.7s0,1.1-.2,1.5c-.1.5-.3.9-.6,1.4-.2.4-.5.8-.9,1.1s-.7.6-1.1.9c-.4.2-.9.4-1.4.6-.5.1-1,.2-1.5.2-.5,0-1.1,0-1.7-.1-.6,0-1.1-.2-1.7-.4s-1.1-.5-1.7-.8c-.6-.3-1.1-.6-1.6-1-.5-.4-1-.8-1.5-1.3-.5-.5-.9-1-1.3-1.5-.4-.5-.7-1.1-1-1.6s-.6-1.1-.8-1.7c-.2-.6-.3-1.1-.4-1.7,0-.6-.1-1.1-.1-1.7s0-1,.2-1.5c.1-.5.3-.9.6-1.4.2-.4.5-.8.9-1.1.3-.3.7-.6,1.1-.9.4-.2.9-.4,1.4-.6.5-.1,1-.2,1.5-.2s1.1,0,1.7.1c.6,0,1.1.2,1.7.4.6.2,1.1.4,1.7.8s1.1.7,1.6,1,1,.8,1.5,1.3Z"/>
  <path class="st8" d="M242.4,48.8c.5.5.9,1,1.2,1.6.3.6.5,1.1.6,1.7s0,1.1,0,1.6c-.1.5-.4.9-.7,1.3-.3.3-.8.6-1.3.7-.5.1-1,.2-1.6,0s-1.1-.3-1.7-.6c-.6-.3-1.1-.7-1.6-1.2s-.9-1-1.2-1.6c-.3-.6-.5-1.1-.6-1.7,0-.6,0-1.1,0-1.6.1-.5.4-.9.7-1.3.3-.3.8-.6,1.3-.7.5-.1,1-.2,1.6,0s1.1.3,1.7.6c.6.3,1.1.7,1.6,1.2Z"/>
  <path class="st8" d="M86.5,61c.2.2.4.5.6.8.2.3.3.6.3.9s0,.6,0,.8c0,.3-.2.5-.4.6-.2.2-.4.3-.6.4-.2,0-.5,0-.8,0s-.6-.1-.9-.3c-.3-.2-.5-.3-.8-.6s-.4-.5-.6-.8c-.2-.3-.3-.6-.3-.9,0-.3,0-.6,0-.8,0-.3.2-.5.3-.6s.4-.3.6-.4c.3,0,.5,0,.8,0s.6.2.9.3.5.3.8.6Z"/>
  <path d="M385.4,159.8h-24.1l-27.7-40.4v40.4h-19.5V54.3h30.4c7.2,0,13,.6,17.3,1.7,4.3,1.1,8.1,3.2,11.6,6.1,7.4,6.3,11.1,14.9,11.1,26s-2.2,15.1-6.6,20.7c-4.4,5.6-11.4,9.6-20.9,12l28.5,39ZM364.7,88.7c0-3.1-.6-5.9-1.7-8.3-1.1-2.4-3.3-4.2-6.6-5.5-3.2-1.3-7.9-1.9-14.1-1.9h-8.7v31.7h9.6c7.6,0,13.1-1.3,16.5-3.9,3.4-2.6,5.1-6.6,5.1-12.1Z"/>
  <path d="M461.7,159.8h-17.5v-7.6c-3.5,3.5-7,6-10.4,7.4-3.4,1.4-7.5,2.1-12.3,2.1s-11.4-1.3-15.9-3.9c-4.5-2.6-8-6.7-10.5-12.3-2.5-5.7-3.7-13.1-3.7-22.3v-42.4h19v38.7c0,6.9.6,12.2,1.9,15.8,1.2,3.6,3,6,5.2,7.2,2.2,1.2,4.9,1.9,7.9,1.9,6.6,0,11.4-2.4,14.4-7.3,1.1-1.8,1.8-4.1,2.3-6.9.5-2.8.7-6.8.7-12v-37.3h19v79Z"/>
  <path d="M553,144.8c0,11.3-1.7,20.4-5.1,27.2-3.4,6.8-8.2,11.7-14.3,14.8-6.1,3-13.3,4.6-21.5,4.6s-18.1-2.2-25.2-6.6-12.2-10.6-15.5-18.5h21.5c2.8,3,5.7,5.2,8.7,6.5,3,1.3,6.8,1.9,11.1,1.9,14.1,0,21.4-8.4,22.1-25.3-3.7,4.4-7.6,7.5-11.6,9.4-4,1.9-8.8,2.9-14.4,2.9s-14.2-1.8-20-5.4c-5.8-3.6-10.4-8.6-13.8-14.9-3.3-6.3-5-13.5-5-21.6s1.7-14.8,5.1-20.9c3.4-6.1,8-11,13.9-14.6,5.9-3.6,12.6-5.4,20-5.4,11.4,0,20,4,25.8,11.9v-10h18.1v64.1ZM534.1,120.6c0-7.2-2.1-13.1-6.4-17.5-4.2-4.5-9.7-6.7-16.5-6.7s-12,2.2-16,6.6c-4,4.4-6,10.3-6,17.6s2,13,6.1,17.3c4,4.3,9.4,6.4,16.2,6.4s12.2-2.2,16.3-6.5c4.1-4.3,6.2-10.1,6.2-17.2Z"/>
  <path d="M647.6,119.7c0,7.9-1.7,15-5,21.4-3.3,6.4-7.9,11.4-13.7,15.1-5.8,3.7-12.4,5.5-19.8,5.5s-10.8-.9-15-2.7c-4.2-1.8-8.3-4.9-12.4-9.3v10.1h-17.4V54.3h19v33.7c3.6-3.6,7.3-6.2,11.1-7.8,3.8-1.6,8.3-2.4,13.4-2.4,7.6,0,14.4,1.8,20.4,5.5,6,3.7,10.7,8.6,14.2,14.9,3.5,6.3,5.2,13.4,5.2,21.4ZM628.5,119.8c0-4.8-1-9-3-12.6-2-3.7-4.7-6.6-8.3-8.7-3.5-2.1-7.6-3.2-12.1-3.2s-8.3,1.1-11.8,3.1c-3.5,2.1-6.2,5-8.2,8.6-2,3.7-3,7.9-3,12.6s1,9,3,12.7c2,3.7,4.8,6.6,8.3,8.7,3.5,2.1,7.6,3.1,12.1,3.1,6.8,0,12.3-2.3,16.5-6.8,4.3-4.5,6.4-10.4,6.4-17.6Z"/>
  <path d="M728.4,80.7l-45.7,105.4h-20.4l14.8-33.8-29-71.6h21.7l17.5,51.2,19.1-51.2h21.8Z"/>
  <path class="st1" d="M310.4,205.2h-8.8v39.3h-8.9v-39.3h-8.8v-8.5h26.5v8.5Z"/>
  <path class="st1" d="M328.8,216.1c-5.1.1-7.7,2.9-7.7,8.5v19.9h-8.6v-35.8h7.9v3.5c1.1-1.6,2.2-2.8,3.3-3.4,1.1-.6,2.6-.9,4.4-.9h.6v8.3Z"/>
  <path class="st1" d="M367.8,244.5h-7.9v-4.6c-1.7,1.9-3.5,3.3-5.3,4.2s-4,1.3-6.5,1.3-6.6-.8-9.3-2.4c-2.7-1.6-4.8-3.8-6.4-6.6-1.5-2.8-2.3-6-2.3-9.6s.8-6.9,2.4-9.7c1.6-2.8,3.7-5,6.5-6.7,2.7-1.6,5.9-2.5,9.4-2.5s4.8.4,6.7,1.3c1.9.9,3.5,2.3,5,4.3v-4.8h7.9v35.8ZM359.7,226.8c0-2.2-.5-4.1-1.4-5.8-.9-1.7-2.1-3-3.7-3.9-1.6-.9-3.4-1.4-5.5-1.4s-3.8.5-5.4,1.4c-1.6.9-2.8,2.3-3.7,3.9-.9,1.7-1.3,3.6-1.3,5.8,0,3.1,1,5.7,2.9,7.6,2,1.9,4.5,2.9,7.6,2.9s4.1-.5,5.6-1.4c1.6-.9,2.7-2.2,3.5-3.8.8-1.6,1.2-3.4,1.2-5.4Z"/>
  <path class="st1" d="M404.5,244.5h-8.6v-17.5c0-3.2-.3-5.6-.9-7.2-.6-1.6-1.3-2.7-2.4-3.2-1-.5-2.2-.8-3.6-.8-2.8,0-4.9,1.1-6.3,3.3-.6.9-1,1.9-1.1,3.1-.2,1.2-.3,3-.3,5.4v16.9h-8.6v-35.8h8v3.4c1.6-1.5,3.1-2.6,4.7-3.3,1.6-.7,3.3-1,5.4-1,5.1,0,8.8,1.7,11.2,5.2,1,1.4,1.7,3,2,4.8.4,1.8.6,4.3.6,7.5v19.2Z"/>
  <path class="st1" d="M433.5,233.1c0,2.3-.6,4.3-1.7,6.2-1.1,1.8-2.7,3.3-4.6,4.4-1.9,1.1-4.1,1.6-6.5,1.6-3.5,0-6.5-1-8.9-3-2.4-2-3.8-5.1-4.3-9.2h8.6c.4,1.5,1,2.6,1.8,3.3.8.7,1.8,1,3,1s2-.3,2.8-1c.7-.7,1.1-1.5,1.1-2.5s-.1-1.3-.3-1.7c-.2-.4-.7-.9-1.6-1.3-.8-.4-2.2-1-4.2-1.6-3.5-1.2-6.1-2.6-7.6-4.2-1.5-1.6-2.3-3.7-2.3-6.4s.5-3.9,1.6-5.6c1.1-1.6,2.5-2.9,4.3-3.9,1.8-1,3.8-1.5,6-1.5s3.9.4,5.6,1.3c1.8.9,3.2,2.1,4.3,3.7,1.1,1.6,1.7,3.5,1.8,5.7h-8.4c-.4-1.9-1.5-2.8-3.4-2.8s-1.7.3-2.4.9-.9,1.3-.9,2.2,0,1.1.3,1.4c.2.3.7.7,1.6,1,.9.3,2.3.8,4.2,1.5,3.8,1.2,6.3,2.5,7.8,4.1,1.4,1.6,2.2,3.7,2.2,6.4Z"/>
  <path class="st1" d="M450.9,205h-.8c-1.7,0-2.8.3-3.5.9-.6.6-1,1.7-1,3.4h4.8v7.2h-4.8v28h-8.6v-28h-3.1v-7.2h3.1c.3-3.1,1.1-5.6,2.1-7.4,1.1-1.8,2.4-3.1,4.1-3.9,1.7-.8,3.5-1.2,5.6-1.2h.9c.3,0,.7,0,1.2.1v8.1Z"/>
  <path class="st1" d="M489,227.1c0,.7,0,1.2,0,1.7,0,.5-.1,1-.3,1.6h-27.7c.5,2.2,1.7,3.9,3.4,5.1,1.8,1.3,3.9,1.9,6.5,1.9s3.3-.3,4.5-.8c1.2-.5,2.3-1.5,3.4-2.8h9.4c-.8,2.4-2.1,4.5-3.9,6.2-1.8,1.7-3.8,3-6.1,3.9-2.3.9-4.7,1.3-7.1,1.3s-5.3-.5-7.6-1.4c-2.3-.9-4.4-2.3-6.1-4-1.8-1.7-3.1-3.7-4.1-5.9-1-2.2-1.5-4.7-1.5-7.3s.5-5.1,1.4-7.4c1-2.3,2.3-4.3,4-6,1.7-1.7,3.7-3.1,6-4,2.3-1,4.8-1.5,7.4-1.5s6.7.8,9.5,2.5c2.8,1.7,5,3.9,6.5,6.9,1.6,2.9,2.4,6.2,2.4,9.9ZM480.6,222.8c-.6-2.3-1.7-4-3.4-5.3-1.7-1.2-3.9-1.9-6.5-1.9s-4.7.6-6.4,1.9c-1.7,1.2-2.9,3-3.6,5.3h19.8Z"/>
  <path class="st1" d="M509.3,216.1c-5.1.1-7.7,2.9-7.7,8.5v19.9h-8.6v-35.8h7.9v3.5c1.1-1.6,2.2-2.8,3.3-3.4,1.1-.6,2.6-.9,4.4-.9h.6v8.3Z"/>
  <path class="st1" d="M586,244.5h-8.8v-35.8l-12.5,35.8h-7.2l-12.5-35.8v35.8h-8.8v-47.7h12.1l12.9,36.1,12.7-36.1h12.1v47.7Z"/>
  <path class="st1" d="M628,244.5h-7.9v-4.6c-1.7,1.9-3.5,3.3-5.3,4.2s-4,1.3-6.5,1.3-6.6-.8-9.3-2.4c-2.7-1.6-4.8-3.8-6.4-6.6-1.5-2.8-2.3-6-2.3-9.6s.8-6.9,2.4-9.7c1.6-2.8,3.7-5,6.5-6.7,2.7-1.6,5.9-2.5,9.4-2.5s4.8.4,6.7,1.3c1.9.9,3.5,2.3,5,4.3v-4.8h7.9v35.8ZM619.8,226.8c0-2.2-.5-4.1-1.4-5.8-.9-1.7-2.1-3-3.7-3.9-1.6-.9-3.4-1.4-5.5-1.4s-3.8.5-5.4,1.4c-1.6.9-2.8,2.3-3.7,3.9-.9,1.7-1.3,3.6-1.3,5.8,0,3.1,1,5.7,2.9,7.6,2,1.9,4.5,2.9,7.6,2.9s4.1-.5,5.6-1.4c1.6-.9,2.7-2.2,3.5-3.8.8-1.6,1.2-3.4,1.2-5.4Z"/>
  <path class="st1" d="M649.1,216.1c-5.1.1-7.7,2.9-7.7,8.5v19.9h-8.6v-35.8h7.9v3.5c1.1-1.6,2.2-2.8,3.3-3.4,1.1-.6,2.6-.9,4.4-.9h.6v8.3Z"/>
  <path class="st1" d="M684.3,244.5h-11.6l-12.2-16.7v16.7h-8.6v-47.7h8.6v28.8l11.4-16.9h10.3l-12.8,17.5,14.9,18.3Z"/>
  <path class="st1" d="M723.6,227.1c0,.7,0,1.2,0,1.7,0,.5-.1,1-.3,1.6h-27.7c.5,2.2,1.7,3.9,3.4,5.1,1.8,1.3,3.9,1.9,6.5,1.9s3.3-.3,4.5-.8c1.2-.5,2.3-1.5,3.4-2.8h9.4c-.8,2.4-2.1,4.5-3.9,6.2-1.8,1.7-3.8,3-6.1,3.9-2.3.9-4.7,1.3-7.1,1.3s-5.3-.5-7.6-1.4c-2.3-.9-4.4-2.3-6.1-4-1.8-1.7-3.1-3.7-4.1-5.9-1-2.2-1.5-4.7-1.5-7.3s.5-5.1,1.4-7.4c1-2.3,2.3-4.3,4-6,1.7-1.7,3.7-3.1,6-4,2.3-1,4.8-1.5,7.4-1.5s6.7.8,9.5,2.5c2.8,1.7,5,3.9,6.5,6.9,1.6,2.9,2.4,6.2,2.4,9.9ZM715.1,222.8c-.6-2.3-1.7-4-3.4-5.3-1.7-1.2-3.9-1.9-6.5-1.9s-4.7.6-6.4,1.9c-1.7,1.2-2.9,3-3.6,5.3h19.8Z"/>
  <path class="st1" d="M742.6,216.5h-5.2v28h-8.6v-28h-4.2v-7.8h4.2v-11.9h8.6v11.9h5.2v7.8Z"/>
</svg>